<svg xmlns="http://www.w3.org/2000/svg" viewBox="0 0 250 250"><defs><style>.cls-1{fill:#1b365d;}.cls-2{fill:#fff;}.cls-3{fill:none;stroke:#fff;stroke-miterlimit:10;stroke-width:10px;}</style></defs><title>mic</title><circle class="cls-1" cx="125" cy="125" r="125"/><g id="Mic"><rect class="cls-2" x="270.24" y="225.75" width="60" height="100" rx="27" ry="27" transform="translate(425.48 376.5) rotate(180)"/><path class="cls-2" d="M314.65,363.75h-29c-6.43,0-6.44,10,0,10h29c6.44,0,6.45-10,0-10Z" transform="translate(-175 -175)"/><line class="cls-3" x1="124.74" y1="167.25" x2="124.74" y2="198.75"/><path class="cls-2" d="M252.74,300.25c.4,26.23,20.57,49,47.5,49s47.1-22.76,47.5-49c.1-6.44-9.9-6.44-10,0-.32,20.83-16.05,39-37.5,39s-37.19-18.18-37.5-39c-.1-6.43-10.1-6.45-10,0Z" transform="translate(-175 -175)"/></g></svg>