<?xml version="1.0" encoding="utf-8"?>
<!-- Generator: Adobe Illustrator 22.0.1, SVG Export Plug-In . SVG Version: 6.00 Build 0)  -->
<svg version="1.1" id="Ebene_1" xmlns="http://www.w3.org/2000/svg" xmlns:xlink="http://www.w3.org/1999/xlink" x="0px" y="0px"
	 viewBox="0 0 250 250" style="enable-background:new 0 0 250 250;" xml:space="preserve">
<style type="text/css">
	.st0{fill:#1B365D;}
	.st1{display:none;fill:none;stroke:#FFFFFF;stroke-width:5;stroke-miterlimit:10;}
	.st2{fill:none;stroke:#FFFFFF;stroke-width:5;stroke-miterlimit:10;}
	.st3{display:none;}
	.st4{display:inline;fill:none;stroke:#FFFFFF;stroke-width:5;stroke-miterlimit:10;}
	.st5{fill:none;}
	.st6{enable-background:new    ;}
	.st7{fill:#FFFFFF;}
</style>
<title>wifi</title>
<g id="Ebene_3">
</g>
<g id="Ebene_2">
</g>
<circle class="st0" cx="125" cy="125" r="125"/>
<path class="st1" d="M76,73.4c0-8.8,5.6-15.9,12.5-15.9S101,64.6,101,73.4"/>
<path class="st1" d="M126,124.2c0,8.8-5.6,15.9-12.5,15.9S101,133,101,124.2"/>
<path class="st1" d="M176,124.2c0,8.8-5.6,15.9-12.5,15.9S151,133,151,124.2"/>
<path class="st1" d="M126,73.1c0-8.8,5.6-15.9,12.5-15.9S151,64.3,151,73.1"/>
<path class="st1" d="M109,135.6"/>
<line class="st1" x1="101" y1="73.2" x2="101" y2="124.2"/>
<line class="st1" x1="126" y1="72.6" x2="126" y2="124.8"/>
<line class="st1" x1="151" y1="72.2" x2="151" y2="123.1"/>
<line class="st1" x1="151" y1="73.6" x2="151" y2="124.6"/>
<line class="st1" x1="76" y1="73.4" x2="76" y2="98.9"/>
<line class="st1" x1="176" y1="98.7" x2="176" y2="124.2"/>
<line class="st2" x1="53" y1="98.8" x2="199" y2="98.8"/>
<g class="st3">
	<path class="st4" d="M53,58.8c14.6,0,14.6,80,29.2,80c14.6,0,14.6-80,29.2-80c14.6,0,14.6,80,29.2,80c14.6,0,14.6-80,29.2-80
		c14.6,0,14.6,80,29.2,80"/>
</g>
<path class="st1" d="M184.4,98.8c3.7,20,7.3,40,14.6,40"/>
<path class="st2" d="M67.6,98.8c3.6,20,7.3,40,14.6,40c7.3,0,10.9-20,14.6-40s7.3-40,14.6-40c7.3,0,10.9,20,14.6,40
	c3.6,20,7.3,40,14.6,40c7.3,0,11-20,14.6-40s7.3-40,14.6-40c7.3,0,11,20,14.6,40"/>
<path class="st1" d="M53,58.8c7.3,0,10.9,20,14.6,40"/>
<line class="st1" x1="151" y1="72.2" x2="151" y2="123.1"/>
<rect x="68.3" y="157.5" class="st5" width="114.2" height="28.1"/>
<g class="st6">
	<path class="st7" d="M71.1,184.8v-27.2h11.6c2.9,0,5,0.2,6.3,0.7c1.3,0.5,2.4,1.4,3.2,2.6c0.8,1.3,1.2,2.7,1.2,4.3
		c0,2-0.6,3.7-1.8,5.1c-1.2,1.3-3,2.2-5.4,2.5c1.2,0.7,2.2,1.5,2.9,2.3c0.8,0.8,1.8,2.3,3.1,4.4l3.3,5.3H89l-4-5.9
		c-1.4-2.1-2.4-3.4-2.9-4c-0.5-0.5-1.1-0.9-1.7-1.1c-0.6-0.2-1.5-0.3-2.8-0.3h-1.1v11.4H71.1z M76.6,169.1h4.1
		c2.6,0,4.3-0.1,4.9-0.3c0.7-0.2,1.2-0.6,1.5-1.2c0.4-0.5,0.6-1.2,0.6-2c0-0.9-0.2-1.7-0.7-2.2c-0.5-0.6-1.2-0.9-2.1-1.1
		c-0.4-0.1-1.8-0.1-4-0.1h-4.3V169.1z"/>
	<path class="st7" d="M98.6,184.8v-27.2h18.6v4.6H104v6.4h11.4v4.6H104v11.6H98.6z"/>
	<path class="st7" d="M130.8,184.8v-5.5h-11.1v-4.6l11.8-17.3h4.4v17.3h3.4v4.6h-3.4v5.5H130.8z M130.8,174.7v-9.3l-6.3,9.3H130.8z"
		/>
	<path class="st7" d="M141.5,177.5l5-0.6c0.2,1.3,0.6,2.3,1.3,3c0.7,0.7,1.6,1,2.6,1c1.1,0,2-0.4,2.7-1.2c0.7-0.8,1.1-1.9,1.1-3.3
		c0-1.3-0.4-2.3-1.1-3.1c-0.7-0.8-1.6-1.2-2.6-1.2c-0.7,0-1.5,0.1-2.4,0.4l0.6-4.2c1.4,0,2.5-0.3,3.2-0.9c0.7-0.7,1.1-1.5,1.1-2.6
		c0-0.9-0.3-1.6-0.8-2.2c-0.5-0.5-1.3-0.8-2.2-0.8c-0.9,0-1.7,0.3-2.3,0.9c-0.6,0.6-1,1.5-1.2,2.7l-4.8-0.8c0.3-1.6,0.8-3,1.5-3.9
		c0.7-1,1.6-1.8,2.8-2.3c1.2-0.6,2.6-0.8,4.1-0.8c2.6,0,4.6,0.8,6.2,2.4c1.3,1.3,1.9,2.8,1.9,4.5c0,2.4-1.3,4.3-3.9,5.7
		c1.6,0.3,2.8,1.1,3.7,2.2c0.9,1.2,1.4,2.6,1.4,4.2c0,2.4-0.9,4.4-2.6,6.1c-1.7,1.7-3.9,2.5-6.5,2.5c-2.5,0-4.5-0.7-6.1-2.1
		C142.7,181.7,141.8,179.8,141.5,177.5z"/>
	<path class="st7" d="M162.7,177.5l5-0.6c0.2,1.3,0.6,2.3,1.3,3c0.7,0.7,1.6,1,2.6,1c1.1,0,2-0.4,2.7-1.2c0.7-0.8,1.1-1.9,1.1-3.3
		c0-1.3-0.4-2.3-1.1-3.1c-0.7-0.8-1.6-1.2-2.6-1.2c-0.7,0-1.5,0.1-2.4,0.4l0.6-4.2c1.4,0,2.5-0.3,3.2-0.9c0.7-0.7,1.1-1.5,1.1-2.6
		c0-0.9-0.3-1.6-0.8-2.2c-0.5-0.5-1.3-0.8-2.2-0.8c-0.9,0-1.7,0.3-2.3,0.9c-0.6,0.6-1,1.5-1.2,2.7l-4.8-0.8c0.3-1.6,0.8-3,1.5-3.9
		c0.7-1,1.6-1.8,2.8-2.3c1.2-0.6,2.6-0.8,4.1-0.8c2.6,0,4.6,0.8,6.2,2.4c1.3,1.3,1.9,2.8,1.9,4.5c0,2.4-1.3,4.3-3.9,5.7
		c1.6,0.3,2.8,1.1,3.7,2.2c0.9,1.2,1.4,2.6,1.4,4.2c0,2.4-0.9,4.4-2.6,6.1c-1.7,1.7-3.9,2.5-6.5,2.5c-2.5,0-4.5-0.7-6.1-2.1
		C163.9,181.7,162.9,179.8,162.7,177.5z"/>
</g>
</svg>
