<svg xmlns="http://www.w3.org/2000/svg" viewBox="0 0 250 250"><defs><style>.cls-1{fill:#1b365d;}.cls-2{fill:#fff;}.cls-3,.cls-4{fill:none;}.cls-4{stroke:#fff;stroke-miterlimit:10;stroke-width:10px;}</style></defs><title>wifi</title><circle class="cls-1" cx="125" cy="125" r="125"/><g id="wifi"><path class="cls-2" d="M219.6,292.86l-.6,0v10.61A70.71,70.71,0,0,1,289.45,373h10.64A80.5,80.5,0,0,0,219.6,292.86Z" transform="translate(-175 -175)"/><path class="cls-2" d="M219.24,314.11H219v10.64A49.1,49.1,0,0,1,267.25,373h10.64v-.24A58.65,58.65,0,0,0,219.24,314.11Z" transform="translate(-175 -175)"/><path class="cls-2" d="M257,374H219V336A38,38,0,0,1,257,374Z" transform="translate(-175 -175)"/><line class="cls-3" x1="125" y1="77" x2="125" y2="118"/><line class="cls-3" x1="87" y1="118" x2="84" y2="118"/><line class="cls-3" x1="125" y1="159" x2="125" y2="156"/><line class="cls-3" x1="166" y1="118" x2="163" y2="118"/><line class="cls-3" x1="125" y1="80" x2="125" y2="77"/><path class="cls-4" d="M307.79,354H349a12,12,0,0,0,12-12V244a12,12,0,0,0-12-12H251a12,12,0,0,0-12,12v41.21" transform="translate(-175 -175)"/><rect class="cls-2" x="90" y="82" width="10" height="25"/><rect class="cls-2" x="150" y="82" width="10" height="25"/><circle class="cls-2" cx="125" cy="128" r="10"/><rect class="cls-2" x="115" y="127" width="20" height="15"/></g></svg>