<svg xmlns="http://www.w3.org/2000/svg" viewBox="0 0 250 250"><defs><style>.cls-1,.cls-4{fill:#1b365d;}.cls-2,.cls-3{fill:#fff;}.cls-2{stroke:#fff;stroke-width:10px;}.cls-2,.cls-4{stroke-miterlimit:10;}.cls-4{stroke:#1b365d;}</style></defs><title>phon</title><circle class="cls-1" cx="125" cy="125" r="125"/><g id="phon"><rect class="cls-2" x="262" y="232" width="80" height="137" rx="12" ry="12" transform="translate(429 426) rotate(180)"/><rect class="cls-1" x="96.5" y="66.6" width="61" height="106.9"/><path class="cls-1" d="M271.5,353.5h61a5.07,5.07,0,0,0,5-5V241.6a5.07,5.07,0,0,0-5-5h-61a5.07,5.07,0,0,0-5,5V348.5c0,6.43,10,6.45,10,0V241.6l-5,5h61l-5-5V348.5l5-5h-61C265.07,343.5,265.05,353.5,271.5,353.5Z" transform="translate(-175 -175)"/><rect class="cls-3" x="113" y="61.5" width="27.5" height="2"/><path class="cls-3" d="M315.5,237H288l1.5,1.5v-2L288,238h27.5l-1.5-1.5v2a1.5,1.5,0,0,0,3,0v-2a1.52,1.52,0,0,0-1.5-1.5H288a1.52,1.52,0,0,0-1.5,1.5v2A1.52,1.52,0,0,0,288,240h27.5A1.5,1.5,0,0,0,315.5,237Z" transform="translate(-175 -175)"/><circle class="cls-4" cx="126.5" cy="188.5" r="5"/></g></svg>