<?xml version="1.0" encoding="UTF-8" standalone="no"?>
<svg
   xmlns:dc="http://purl.org/dc/elements/1.1/"
   xmlns:cc="http://creativecommons.org/ns#"
   xmlns:rdf="http://www.w3.org/1999/02/22-rdf-syntax-ns#"
   xmlns:svg="http://www.w3.org/2000/svg"
   xmlns="http://www.w3.org/2000/svg"
   xmlns:sodipodi="http://sodipodi.sourceforge.net/DTD/sodipodi-0.dtd"
   xmlns:inkscape="http://www.inkscape.org/namespaces/inkscape"
   id="svg4927"
   version="1.1"
   viewBox="0 0 40.704578 40.704498"
   height="40.704498mm"
   width="40.704578mm"
   sodipodi:docname="logo-enocean.svg"
   inkscape:version="0.92.5 (2060ec1f9f, 2020-04-08)">
  <sodipodi:namedview
     pagecolor="#ffffff"
     bordercolor="#666666"
     borderopacity="1"
     objecttolerance="10"
     gridtolerance="10"
     guidetolerance="10"
     inkscape:pageopacity="0"
     inkscape:pageshadow="2"
     inkscape:window-width="3840"
     inkscape:window-height="2032"
     id="namedview873"
     showgrid="false"
     inkscape:zoom="2.0096532"
     inkscape:cx="68.98932"
     inkscape:cy="76.921887"
     inkscape:window-x="0"
     inkscape:window-y="54"
     inkscape:window-maximized="1"
     inkscape:current-layer="svg4927" />
  <defs
     id="defs4921">
    <clipPath
       id="clipPath26"
       clipPathUnits="userSpaceOnUse">
      <path
         id="path24"
         d="m 227.758,386.99 h 87.417 v 52.38 h -87.417 z" />
    </clipPath>
  </defs>
  <metadata
     id="metadata4924">
    <rdf:RDF>
      <cc:Work
         rdf:about="">
        <dc:format>image/svg+xml</dc:format>
        <dc:type
           rdf:resource="http://purl.org/dc/dcmitype/StillImage" />
        <dc:title />
      </cc:Work>
    </rdf:RDF>
  </metadata>
  <path
     inkscape:connector-curvature="0"
     style="opacity:1;vector-effect:none;fill:#202a60;fill-opacity:1;stroke:none;stroke-width:0.19486985;stroke-linecap:butt;stroke-linejoin:miter;stroke-miterlimit:4;stroke-dasharray:none;stroke-dashoffset:0;stroke-opacity:1;paint-order:normal"
     id="path4859"
     d="M 20.55717,9.5e-4 A 20.352289,20.352289 0 0 1 40.7041,20.49156 20.352289,20.352289 0 0 1 20.27848,40.70437 20.352289,20.352289 0 0 1 0,20.34393 20.352289,20.352289 0 0 1 20.29504,0" />
  <g
     id="g1464"
     transform="matrix(1.2735564,0,0,1.2735564,-5.5057529,1.2940179)">
    <path
       id="path62"
       style="fill:#ffffff;fill-opacity:1;fill-rule:nonzero;stroke:none;stroke-width:0.39911634"
       d="m 31.589218,17.772714 c 0,1.790436 -5.053611,3.240825 -11.286212,3.240825 -6.233399,0 -11.2846153,-1.450389 -11.2846153,-3.240825 0,-1.791633 4.6093943,-10.5191103 10.8419953,-10.5191103 6.233,0 11.728832,8.7274773 11.728832,10.5191103"
       inkscape:connector-curvature="0" />
    <g
       id="g64"
       transform="matrix(0.39911634,0,0,-0.39911634,27.800925,14.245683)">
      <path
         inkscape:connector-curvature="0"
         d="m 0,0 c -0.001,0.312 -1.054,0.559 -1.575,0.697 -0.51,0.136 -2.335,0.381 -2.442,0.561 -0.089,0.159 -1.313,3.037 -4.159,5.248 -2.674,2.077 -7.101,3.935 -11.529,3.607 -5.736,-0.424 -10.877,-3.553 -14.965,-8.532 -2.488,-3.032 -5.278,-5.305 -3.186,-6.575 1.016,-0.617 6.048,-2.771 8.585,-3.717 2.698,-1.006 7.812,-3.174 13.442,-2.652 4.651,0.432 9.656,3.951 11.735,7.011 0.683,1.134 -2.422,1.857 -3.273,0.434 -1.235,-2.066 -3.934,-4.855 -9.987,-5.1 -8.143,-0.33 -15.16,4.917 -16.288,6.177 -0.861,0.962 4.371,8.09 9.946,9.933 5.759,1.905 11.316,0.999 16.815,-4.688 0.467,-0.483 1.014,-1.425 -0.152,-1.366 -0.997,0.049 -3.926,0.767 -7.698,0.33 -4.941,-0.573 -10.549,-1.859 -8.021,-2.419 0.377,-0.084 6.153,0.581 10.122,0.62 3.968,0.037 8.242,-0.751 8.86,-0.858 0.6,-0.104 3.307,-0.68 3.459,-0.331 C -0.189,-1.341 0.002,-0.519 0,0"
         style="fill:#202a60;fill-opacity:1;fill-rule:nonzero;stroke:none"
         id="path66" />
    </g>
  </g>
</svg>
