<?xml version="1.0" encoding="utf-8"?>
<!-- Generator: Adobe Illustrator 22.1.0, SVG Export Plug-In . SVG Version: 6.00 Build 0)  -->
<svg version="1.1" id="Ebene_1" xmlns="http://www.w3.org/2000/svg" xmlns:xlink="http://www.w3.org/1999/xlink" x="0px" y="0px"
	 viewBox="0 0 250 250" style="enable-background:new 0 0 250 250;" xml:space="preserve">
<style type="text/css">
	.st0{fill:#1B365D;}
	.st1{display:none;fill:url(#SVGID_1_);}
	.st2{fill:#FFFFFF;}
	.st3{display:none;fill:url(#SVGID_2_);}
	.st4{display:none;fill:#FFFFFF;}
</style>
<title>zwave</title>
<circle class="st0" cx="125" cy="125" r="125"/>
<g>
	
		<radialGradient id="SVGID_1_" cx="-172.8299" cy="424.9297" r="0.1875" gradientTransform="matrix(256 0 0 -256 44370 108882)" gradientUnits="userSpaceOnUse">
		<stop  offset="0" style="stop-color:#DC001F"/>
		<stop  offset="0.6421" style="stop-color:#D5001D"/>
		<stop  offset="0.8238" style="stop-color:#AE0017"/>
		<stop  offset="1" style="stop-color:#590E0A"/>
	</radialGradient>
	<path class="st1" d="M77.6,100c0,26.5,21.5,48,48,48s48-21.5,48-48s-21.5-48-48-48S77.6,73.5,77.6,100L77.6,100z"/>
	<path class="st2" d="M77.6,100c0,26.5,21.5,48,48,48s48-21.5,48-48s-21.5-48-48-48S77.6,73.5,77.6,100L77.6,100z"/>
	
		<linearGradient id="SVGID_2_" gradientUnits="userSpaceOnUse" x1="-172.4966" y1="422.622" x2="-172.4963" y2="423.0042" gradientTransform="matrix(171.269 0 0 -73.4633 29668.6738 31130.0059)">
		<stop  offset="0" style="stop-color:#D4001C"/>
		<stop  offset="0.5313" style="stop-color:#EC8A6C"/>
		<stop  offset="0.8876" style="stop-color:#FCEFE7"/>
		<stop  offset="1" style="stop-color:#FDF7F1"/>
	</linearGradient>
	<path class="st3" d="M93.2,74.6c0,10.7,14.4,7.8,32.1,7.8s32.1,2.9,32.1-7.8c0-10.7-14.4-19.4-32.1-19.4
		C107.6,55.2,93.2,63.9,93.2,74.6L93.2,74.6z"/>
	<path class="st4" d="M111.1,127.6c-0.1-0.1,11-12.3,23.9-25c12.8-12.7,23.7-23.9,23.7-23.9C158.3,70,151.8,65.7,146,65
		c-3.7-0.8-31-1.7-46.5,0.7c-2.9,0.3-5.8,0.7-8.7,1.2c-0.1,0-1.3,1.2-2.3,2.4c-1,1.3-2,2.6-1.9,2.6c8.9-1.3,17.8-2.1,26.6-2.5
		c9.1-0.4,18.2-0.4,27.4,0.1c0.2,0.2-10.2,11.7-23,24.2c-12.7,12.5-24.2,24.1-25.4,25.4c-0.1,9.2,7.7,12.7,11.9,13.6
		c19.4,1.9,39,1.2,58.4-1.9c0,0,1.7-1.9,1.9-2.3c0.2-0.4,1.7-2.6,1.7-2.6c-18.6,2.7-37.2,3.5-55.6,2.5
		C110.9,128,110.9,127.9,111.1,127.6z"/>
	<path class="st0" d="M111.1,127.6c-0.1-0.1,11-12.3,23.9-25c12.8-12.7,23.7-23.9,23.7-23.9C158.3,70,151.8,65.7,146,65
		c-3.7-0.8-31-1.7-46.5,0.7c-2.9,0.3-5.8,0.7-8.7,1.2c-0.1,0-1.3,1.2-2.3,2.4c-1,1.3-2,2.6-1.9,2.6c8.9-1.3,17.8-2.1,26.6-2.5
		c9.1-0.4,18.2-0.4,27.4,0.1c0.2,0.2-10.2,11.7-23,24.2c-12.7,12.5-24.2,24.1-25.4,25.4c-0.1,9.2,7.7,12.7,11.9,13.6
		c19.4,1.9,39,1.2,58.4-1.9c0,0,1.7-1.9,1.9-2.3c0.2-0.4,1.7-2.6,1.7-2.6c-18.6,2.7-37.2,3.5-55.6,2.5
		C110.9,128,110.9,127.9,111.1,127.6z"/>
</g>
<g>
	<path class="st2" d="M105.9,164.3c0.1-1.2,0.2-2.2,0.3-3.3c2.2,0,4.3,0,6.5,0c0.1,0.3,0.3,0.6,0.3,0.9c-0.1,8,0.1,15.9-0.3,23.9
		c-0.3,6.9-4.3,11.4-10.3,12.8c-5.8,1.3-13.1-1-16.3-5.4c1.5-1.2,3.1-2.4,4.8-3.8c1.2,0.7,2.9,1.9,4.7,2.6c2.8,1.2,5.5,0.9,7.9-1.1
		c2.4-2,2.8-4.8,2.7-8.3c-2.8,2.8-5.7,3.9-9.3,3.8c-5.7-0.3-10.1-4.5-10.6-10.8c-0.2-2.7,0.1-5.5,1-8c2.8-8,13.4-9.4,17.8-3.7
		C105.2,163.9,105.4,164,105.9,164.3z M105.9,173.8c0.1-4.3-2.2-7.4-5.7-7.6c-3.5-0.2-6.2,2.1-6.7,5.7c-0.5,4.3,1.6,7.9,5.1,8.5
		c1.9,0.3,3.6-0.1,5.1-1.5C105.2,177.5,105.8,175.7,105.9,173.8z"/>
	<path class="st2" d="M123.8,183c0.8,3.3-1.1,3-3,3c-3.9,0-3.9,0-3.9-3.8c0-9,0-18,0-27c0-0.8,0-1.7,0-2.7c2.3,0,4.5,0,6.9,0
		c0,3.5,0,6.9,0,10.5c0.5-0.2,0.7-0.2,0.9-0.3c5.2-4.5,14.8-2.6,17.4,5.9c1.7,5.5,0.7,10.6-3.6,14.7
		C134.4,187.4,129.4,187.4,123.8,183z M123.6,173.1c0,3.3,1.5,6,4,7c4.3,1.7,8.5-1.8,8.5-6.9c0-4-2.7-7.1-6.3-7.1
		C126.3,166,123.7,169.1,123.6,173.1z"/>
	<path class="st2" d="M153.9,178.3c2.5,3.3,6.1,3.1,10.9-0.3c1.4,1.3,2.7,2.6,4.1,3.9c-4.3,4.9-12.5,6-17.9,2.5
		c-5.5-3.5-7.4-10.7-4.6-16.8c2.3-5,8.3-7.9,14.5-6.9c5.4,0.8,9.4,5,10.2,10.4c0.2,1.3-0.2,1.8-1.4,2.2c-4.7,1.4-9.3,2.9-14,4.4
		C155.1,177.8,154.6,178.1,153.9,178.3z M164.2,169.5c-0.8-2.6-4.8-3.9-7.8-2.8c-3,1.1-4.8,3.8-4.3,6.7
		C156.1,172.1,160.2,170.8,164.2,169.5z"/>
	<path class="st2" d="M182.3,178.3c2.2,3.3,6.1,3.1,11.2-0.5c1.3,1.3,2.5,2.7,3.8,4c-3.6,4.3-10.4,5.8-15.9,3.6
		c-5.2-2.1-8.3-7.3-7.9-13.1c0.4-5.7,4.2-10,9.9-11.5c7.7-1.9,14.6,2.5,16.1,10.2c0.3,1.4-0.1,1.8-1.4,2.2
		c-4.7,1.4-9.3,2.9-13.9,4.4C183.5,177.8,182.9,178.1,182.3,178.3z M180.3,173.4c4.2-1.4,8.2-2.6,12.3-3.9c-1.8-2.8-4.4-3.7-7.4-2.9
		C182.1,167.5,180.3,169.8,180.3,173.4z"/>
	<path class="st2" d="M52.1,166.7c0-2.1,0-3.7,0-5.6c6.7,0,13.3,0,20,0c0.2,2.7,0.6,5.2-1.8,7.6c-3.5,3.5-6.6,7.3-10.2,11.4
		c0.9,0.1,1.5,0.2,2.1,0.2c3.1,0,6.1,0,9.2,0c1.2,0,1.6,0.4,1.6,1.6c-0.1,5.1,0.5,4.1-3.9,4.2c-5.4,0.1-10.8,0-16.2,0
		c-1.4,0-1.8-0.4-2-1.9c-0.3-2.7,0.6-4.8,2.5-6.8c3.2-3.3,6.1-6.8,9.5-10.7C59.1,166.7,55.6,166.7,52.1,166.7z"/>
	<path class="st2" d="M76.3,161c2.3,0,4.5,0,6.9,0c0,8.2,0,16.4,0,24.8c-2.2,0-4.5,0-6.9,0C76.3,177.6,76.3,169.4,76.3,161z"/>
	<path class="st2" d="M83.8,154.7c0,2.3-1.9,4.1-4.2,4c-2.2,0-4.1-1.9-4.1-4.2c0-2.4,1.9-4.2,4.3-4.1
		C82.1,150.6,83.8,152.4,83.8,154.7z"/>
</g>
</svg>
