<svg xmlns="http://www.w3.org/2000/svg" viewBox="0 0 250 250"><defs><style>.cls-1{fill:#1b365d;}.cls-2{fill:#fff;}</style></defs><title>kamera</title><circle class="cls-1" cx="125" cy="125" r="125"/><g id="kamera"><path class="cls-2" d="M379,268.49a10,10,0,0,0-16.95-7.18l-.23.23L339,284.36V267a12,12,0,0,0-12-12H244a12,12,0,0,0-12,12v66a12,12,0,0,0,12,12h83a12,12,0,0,0,12-12V315.64l22.91,22.91,0,0A10,10,0,0,0,379,331.5Z" transform="translate(-175 -175)"/><polygon class="cls-1" points="120.88 124.63 93.39 108.76 93.39 140.5 120.88 124.63"/><path class="cls-1" d="M298.41,295.31l-27.49-15.87a5.05,5.05,0,0,0-7.53,4.32V315.5a5.05,5.05,0,0,0,7.53,4.32L298.41,304c5.57-3.22.54-11.87-5.05-8.64l-27.49,15.87,7.52,4.32V283.76l-7.52,4.32L293.36,304C298.94,307.17,304,298.53,298.41,295.31Z" transform="translate(-175 -175)"/></g></svg>