<?xml version="1.0" encoding="UTF-8" standalone="no"?>
<!-- Created with Inkscape (http://www.inkscape.org/) -->

<svg
   xmlns:dc="http://purl.org/dc/elements/1.1/"
   xmlns:cc="http://creativecommons.org/ns#"
   xmlns:rdf="http://www.w3.org/1999/02/22-rdf-syntax-ns#"
   xmlns:svg="http://www.w3.org/2000/svg"
   xmlns="http://www.w3.org/2000/svg"
   xmlns:sodipodi="http://sodipodi.sourceforge.net/DTD/sodipodi-0.dtd"
   xmlns:inkscape="http://www.inkscape.org/namespaces/inkscape"
   id="svg2"
   version="1.1"
   inkscape:version="0.92.4 (5da689c313, 2019-01-14)"
   xml:space="preserve"
   width="43.432251"
   height="42.604626"
   viewBox="0 0 43.432251 42.604624"
   sodipodi:docname="small_logo.svg"
   inkscape:export-filename="/home/ps/Desktop/Zwave/Пресс/Z-Wave.Me/Логотипы Z-Wave.Me/small_logo_192x192.png"
   inkscape:export-xdpi="424.39001"
   inkscape:export-ydpi="424.39001"><metadata
     id="metadata8"><rdf:RDF><cc:Work
         rdf:about=""><dc:format>image/svg+xml</dc:format><dc:type
           rdf:resource="http://purl.org/dc/dcmitype/StillImage" /><dc:title></dc:title></cc:Work></rdf:RDF></metadata><defs
     id="defs6"><clipPath
       clipPathUnits="userSpaceOnUse"
       id="clipPath24"><path
         d="m 0,841.89 595.28,0 L 595.28,0 0,0 0,841.89 Z"
         id="path26"
         inkscape:connector-curvature="0" /></clipPath><clipPath
       clipPathUnits="userSpaceOnUse"
       id="clipPath46"><path
         d="m 0,841.89 595.28,0 L 595.28,0 0,0 0,841.89 Z"
         id="path48"
         inkscape:connector-curvature="0" /></clipPath></defs><sodipodi:namedview
     pagecolor="#ffffff"
     bordercolor="#666666"
     borderopacity="1"
     objecttolerance="10"
     gridtolerance="10"
     guidetolerance="10"
     inkscape:pageopacity="0"
     inkscape:pageshadow="2"
     inkscape:window-width="3840"
     inkscape:window-height="2031"
     id="namedview4"
     showgrid="false"
     inkscape:zoom="7.176234"
     inkscape:cx="-79.797663"
     inkscape:cy="-11.845696"
     inkscape:window-x="0"
     inkscape:window-y="55"
     inkscape:window-maximized="1"
     inkscape:current-layer="g10"
     fit-margin-top="0"
     fit-margin-left="0"
     fit-margin-right="0"
     fit-margin-bottom="0" /><g
     id="g10"
     inkscape:groupmode="layer"
     inkscape:label="small_logo"
     transform="matrix(1.25,0,0,-1.25,-354.7215,692.11063)"><g
       id="g12"
       transform="translate(288.1826,539.3374)"><path
         d="M 0,0 11.814,11.815 22.61,1.016 10.797,-10.797 0,0 Z"
         style="fill:#55bec3;fill-opacity:1;fill-rule:nonzero;stroke:none"
         id="path14"
         inkscape:connector-curvature="0" /></g><g
       id="g16"
       transform="translate(299.9971,552.5669)"><path
         d="m 0,0 -1.414,-1.415 -10.4,-10.4 -1.415,-1.414 1.415,-1.415 9.383,-9.383 1.414,-1.414 1.414,1.414 10.399,10.399 1.414,1.414 L 10.796,-10.8 1.414,-1.415 0,0 Z m 0,-2.829 9.382,-9.385 -10.399,-10.399 -9.383,9.384 10.4,10.4 z"
         style="fill:#55bec3;fill-opacity:1;fill-rule:nonzero;stroke:none"
         id="path18"
         inkscape:connector-curvature="0" /></g><g
       id="g20"><g
         id="g22"
         clip-path="url(#clipPath24)"><g
           id="g28"
           transform="translate(287.6689,537.436)" /></g></g><g
       id="g30"
       transform="translate(298.9927,529.9414)"><path
         d="m 0,0 -9.409,9.409 5.913,5.914 1.271,-1.829 -3.686,-3.685 2.173,-2.174 3.079,3.08 L 0.889,9.166 -2.172,6.104 0.333,3.599 4.418,7.685 6.052,6.051 0,0 Z"
         style="fill:#ffffff;fill-opacity:1;fill-rule:nonzero;stroke:none"
         id="path32"
         inkscape:connector-curvature="0" /></g><g
       id="g34"
       transform="translate(310.8359,541.7837)"><path
         d="m 0,0 -5.033,-5.035 -1.045,8.227 -8.354,1.17 5.746,5.746 L -3.589,5.679 0,0 Z"
         style="fill:#ffffff;fill-opacity:1;fill-rule:nonzero;stroke:none"
         id="path36"
         inkscape:connector-curvature="0" /></g><g
       id="g38"
       transform="translate(300.8682,553.6885)"><path
         d="m 0,0 -1.54,-1.539 -11.271,-11.272 -1.54,-1.54 1.54,-1.539 9.383,-9.384 1.54,-1.54 1.539,1.54 11.272,11.272 1.54,1.539 -1.54,1.541 L 1.541,-1.539 0,0 Z m 0,-3.079 9.384,-9.384 -11.272,-11.271 -9.383,9.383 L 0,-3.079 Z"
         style="fill:#55bec3;fill-opacity:1;fill-rule:nonzero;stroke:none"
         id="path40"
         inkscape:connector-curvature="0" /></g><g
       id="g42"><g
         id="g44"
         clip-path="url(#clipPath46)"><g
           id="g50"
           transform="translate(284.9072,535.5923)"><path
             d="m 0,0 -1.13,1.131 0.24,0.24 1.717,0.305 c 0.09,0.015 0.26,0.021 0.26,0.021 0,0 -0.131,0.107 -0.221,0.196 L 0.28,2.48 0.641,2.67 1.728,1.582 1.484,1.338 -0.23,1.017 C -0.322,0.998 -0.47,0.994 -0.47,0.994 c 0,0 0.13,-0.111 0.198,-0.179 L 0.37,0.174 0,0 Z"
             style="fill:#929292;fill-opacity:1;fill-rule:nonzero;stroke:none"
             id="path52"
             inkscape:connector-curvature="0" /></g><g
           id="g54"
           transform="translate(286.0327,535.7998)"><path
             d="M 0,0 0.311,0.311 0.98,-0.358 0.668,-0.668 0,0 Z"
             style="fill:#929292;fill-opacity:1;fill-rule:nonzero;stroke:none"
             id="path56"
             inkscape:connector-curvature="0" /></g><g
           id="g58"
           transform="translate(288.187,532.2939)"><path
             d="m 0,0 -0.382,0.381 0.518,0.862 c 0.178,0.295 0.469,0.656 0.469,0.656 0,0 -0.394,-0.284 -0.657,-0.448 L -0.908,0.906 -1.298,1.297 -0.08,3.403 0.283,3.04 -0.229,2.19 c -0.19,-0.31 -0.504,-0.711 -0.504,-0.711 0,0 0.406,0.309 0.701,0.489 L 0.834,2.489 1.209,2.114 0.619,1.17 C 0.494,0.972 0.208,0.581 0.208,0.581 c 0,0 0.451,0.336 0.699,0.485 L 1.744,1.58 2.104,1.218 0,0 Z"
             style="fill:#929292;fill-opacity:1;fill-rule:nonzero;stroke:none"
             id="path60"
             inkscape:connector-curvature="0" /></g><g
           id="g62"
           transform="translate(290.918,532.3052)"><path
             d="M 0,0 -0.91,-0.495 -0.501,-0.903 0,0 Z M -0.943,-1.781 -0.69,-1.24 -1.256,-0.674 -1.792,-0.932 -2.15,-0.573 0.122,0.47 0.498,0.095 -0.575,-2.15 -0.943,-1.781 Z"
             style="fill:#929292;fill-opacity:1;fill-rule:nonzero;stroke:none"
             id="path64"
             inkscape:connector-curvature="0" /></g><g
           id="g66"
           transform="translate(291.3286,529.1514)"><path
             d="M 0,0 -0.309,0.31 0.721,2.602 1.101,2.223 0.548,1.068 C 0.456,0.877 0.27,0.567 0.27,0.567 c 0,0 0.298,0.19 0.494,0.276 L 1.949,1.375 2.307,1.018 0,0 Z"
             style="fill:#929292;fill-opacity:1;fill-rule:nonzero;stroke:none"
             id="path68"
             inkscape:connector-curvature="0" /></g><g
           id="g70"
           transform="translate(292.3174,528.1826)"><path
             d="M 0,0 1.651,1.652 2.691,0.612 2.371,0.389 1.723,1.038 1.34,0.658 1.882,0.117 1.61,-0.156 1.072,0.381 0.632,-0.059 1.349,-0.775 1.063,-1.063 0,0 Z"
             style="fill:#929292;fill-opacity:1;fill-rule:nonzero;stroke:none"
             id="path72"
             inkscape:connector-curvature="0" /></g><g
           id="g74"
           transform="translate(294.2251,526.2197)"><path
             d="M 0,0 C -0.133,0.133 -0.127,0.353 0.01,0.491 0.144,0.625 0.354,0.629 0.485,0.496 0.62,0.362 0.624,0.146 0.489,0.011 0.352,-0.125 0.129,-0.128 0,0"
             style="fill:#929292;fill-opacity:1;fill-rule:nonzero;stroke:none"
             id="path76"
             inkscape:connector-curvature="0" /></g><g
           id="g78"
           transform="translate(296.7173,523.8174)"><path
             d="m 0,0 0.89,1.023 c 0.104,0.123 0.336,0.368 0.336,0.368 0,0 -0.288,-0.172 -0.434,-0.251 L -0.47,0.471 -0.766,0.766 -0.093,1.995 c 0.072,0.133 0.285,0.465 0.285,0.465 0,0 -0.258,-0.248 -0.391,-0.361 L -1.215,1.216 -1.558,1.558 0.27,3.037 0.716,2.591 0.089,1.458 C 0.006,1.307 -0.185,1.03 -0.185,1.03 c 0,0 0.293,0.195 0.433,0.274 L 1.378,1.929 1.827,1.479 0.339,-0.338 0,0 Z"
             style="fill:#929292;fill-opacity:1;fill-rule:nonzero;stroke:none"
             id="path80"
             inkscape:connector-curvature="0" /></g><g
           id="g82"
           transform="translate(297.5693,522.9668)"><path
             d="M 0,0 1.654,1.652 2.691,0.615 2.369,0.391 1.723,1.037 1.34,0.656 1.881,0.117 1.608,-0.156 1.071,0.382 0.632,-0.057 1.351,-0.777 1.064,-1.065 0,0 Z"
             style="fill:#929292;fill-opacity:1;fill-rule:nonzero;stroke:none"
             id="path84"
             inkscape:connector-curvature="0" /></g><g
           id="g86"
           transform="translate(301.1426,525.6289)"><path
             d="m 0,0 -0.248,-0.247 0.449,-0.449 0.245,0.244 C 0.6,-0.299 0.719,-0.101 0.533,0.086 0.352,0.267 0.147,0.147 0,0 M -0.677,0.637 -0.903,0.41 -0.521,0.024 -0.29,0.255 c 0.144,0.142 0.254,0.295 0.086,0.463 -0.162,0.163 -0.343,0.05 -0.473,-0.081 M 1.069,-0.269 C 1.006,-0.412 0.916,-0.525 0.749,-0.691 L 0.13,-1.31 l -1.651,1.652 0.61,0.611 c 0.171,0.169 0.276,0.239 0.398,0.288 0.22,0.085 0.45,0.051 0.612,-0.109 C 0.272,0.957 0.298,0.707 0.178,0.496 0.431,0.632 0.728,0.648 0.943,0.432 1.127,0.247 1.182,-0.008 1.069,-0.269"
             style="fill:#929292;fill-opacity:1;fill-rule:nonzero;stroke:none"
             id="path88"
             inkscape:connector-curvature="0" /></g><g
           id="g90"
           transform="translate(304.083,527.3906)"><path
             d="m 0,0 c -0.006,-0.196 -0.098,-0.421 -0.34,-0.662 -0.302,-0.304 -0.589,-0.395 -0.827,-0.346 -0.149,0.034 -0.253,0.107 -0.425,0.278 l -1.088,1.091 0.347,0.347 1.037,-1.038 c 0.114,-0.114 0.193,-0.181 0.258,-0.202 0.129,-0.046 0.276,0.01 0.412,0.143 0.11,0.111 0.162,0.223 0.153,0.324 -0.013,0.099 -0.041,0.169 -0.206,0.334 l -1.047,1.048 0.35,0.348 1.077,-1.079 C -0.043,0.331 0.006,0.208 0,0"
             style="fill:#929292;fill-opacity:1;fill-rule:nonzero;stroke:none"
             id="path92"
             inkscape:connector-curvature="0" /></g><g
           id="g94"
           transform="translate(304.9658,528.0117)"><path
             d="M 0,0 -1.652,1.651 -1.298,2.006 0.355,0.354 0,0 Z"
             style="fill:#929292;fill-opacity:1;fill-rule:nonzero;stroke:none"
             id="path96"
             inkscape:connector-curvature="0" /></g><g
           id="g98"
           transform="translate(306.8994,529.9443)"><path
             d="m 0,0 -0.953,-0.953 -1.651,1.652 0.343,0.346 1.372,-1.372 0.672,0.672 L 0,0 Z"
             style="fill:#929292;fill-opacity:1;fill-rule:nonzero;stroke:none"
             id="path100"
             inkscape:connector-curvature="0" /></g><g
           id="g102"
           transform="translate(306.4473,532.2695)"><path
             d="m 0,0 -0.179,-0.177 1.118,-1.118 0.216,0.218 C 1.461,-0.772 1.294,-0.439 1.021,-0.168 0.728,0.125 0.353,0.354 0,0 M 1.635,-1.081 C 1.544,-1.227 1.472,-1.307 1.325,-1.453 l -0.46,-0.459 -1.652,1.653 0.367,0.366 C -0.253,0.275 -0.094,0.422 0.078,0.515 0.45,0.709 0.881,0.73 1.372,0.24 1.881,-0.268 1.803,-0.814 1.635,-1.081"
             style="fill:#929292;fill-opacity:1;fill-rule:nonzero;stroke:none"
             id="path104"
             inkscape:connector-curvature="0" /></g><g
           id="g106"
           transform="translate(309.5215,532.4678)"><path
             d="m 0,0 c -0.206,-0.209 -0.467,-0.37 -0.756,-0.464 l -0.138,0.387 c 0.256,0.085 0.45,0.193 0.633,0.375 0.131,0.133 0.299,0.374 0.127,0.544 C -0.239,0.949 -0.384,0.934 -0.616,0.8 L -0.894,0.638 C -1.189,0.464 -1.517,0.43 -1.773,0.686 c -0.296,0.297 -0.226,0.758 0.153,1.138 0.217,0.216 0.525,0.397 0.778,0.443 l 0.08,-0.405 C -0.998,1.799 -1.189,1.691 -1.33,1.551 -1.496,1.386 -1.549,1.221 -1.434,1.106 -1.339,1.01 -1.236,1.017 -1.025,1.141 L -0.75,1.307 C -0.438,1.495 -0.097,1.575 0.188,1.292 0.594,0.886 0.343,0.342 0,0"
             style="fill:#929292;fill-opacity:1;fill-rule:nonzero;stroke:none"
             id="path108"
             inkscape:connector-curvature="0" /></g><g
           id="g110"
           transform="translate(311.4023,537.2256)"><path
             d="M 0,0 -0.448,-0.449 0.926,-1.823 0.58,-2.169 -0.794,-0.795 -1.249,-1.25 -1.527,-0.972 -0.221,0.334 0,0 Z"
             style="fill:#929292;fill-opacity:1;fill-rule:nonzero;stroke:none"
             id="path112"
             inkscape:connector-curvature="0" /></g><g
           id="g114"
           transform="translate(314.0693,537.1426)"><path
             d="M 0,0 -0.737,0.735 -1.308,0.166 -0.569,-0.57 -0.915,-0.915 -2.567,0.738 -2.222,1.083 -1.584,0.445 -1.016,1.013 -1.652,1.651 -1.307,2 0.346,0.348 0,0 Z"
             style="fill:#929292;fill-opacity:1;fill-rule:nonzero;stroke:none"
             id="path116"
             inkscape:connector-curvature="0" /></g><g
           id="g118"
           transform="translate(315.04,538.1143)"><path
             d="M 0,0 -1.652,1.652 -0.614,2.691 -0.392,2.371 -1.037,1.722 -0.655,1.34 -0.115,1.881 0.156,1.609 -0.382,1.071 0.058,0.632 0.776,1.35 1.062,1.063 0,0 Z"
             style="fill:#929292;fill-opacity:1;fill-rule:nonzero;stroke:none"
             id="path120"
             inkscape:connector-curvature="0" /></g><g
           id="g122"
           transform="translate(301.9082,520.0698)"><path
             d="m 0,0 c -0.209,-0.208 -0.468,-0.37 -0.758,-0.465 l -0.138,0.388 c 0.256,0.085 0.449,0.192 0.631,0.375 0.132,0.132 0.3,0.374 0.128,0.545 C -0.242,0.949 -0.387,0.934 -0.618,0.8 L -0.896,0.638 C -1.192,0.463 -1.52,0.43 -1.777,0.686 -2.073,0.982 -2.002,1.444 -1.623,1.823 -1.406,2.04 -1.098,2.22 -0.844,2.267 L -0.765,1.863 C -0.999,1.798 -1.192,1.691 -1.332,1.55 -1.498,1.385 -1.554,1.221 -1.437,1.105 c 0.095,-0.095 0.2,-0.089 0.409,0.036 l 0.275,0.165 C -0.442,1.496 -0.099,1.575 0.185,1.292 0.592,0.885 0.342,0.342 0,0"
             style="fill:#929292;fill-opacity:1;fill-rule:nonzero;stroke:none"
             id="path124"
             inkscape:connector-curvature="0" /></g><g
           id="g126"
           transform="translate(304.5938,522.8286)"><path
             d="m 0,0 -1.023,0.89 c -0.123,0.102 -0.367,0.335 -0.367,0.335 0,0 0.171,-0.286 0.252,-0.433 l 0.667,-1.262 -0.297,-0.297 -1.227,0.672 c -0.135,0.074 -0.466,0.287 -0.466,0.287 0,0 0.25,-0.259 0.363,-0.392 l 0.882,-1.015 -0.341,-0.343 -1.478,1.826 0.445,0.446 1.133,-0.626 c 0.149,-0.083 0.428,-0.274 0.428,-0.274 0,0 -0.196,0.293 -0.274,0.433 l -0.625,1.13 0.449,0.45 L 0.34,0.339 0,0 Z"
             style="fill:#929292;fill-opacity:1;fill-rule:nonzero;stroke:none"
             id="path128"
             inkscape:connector-curvature="0" /></g><g
           id="g130"
           transform="translate(304.626,525.5845)"><path
             d="M 0,0 0.493,-0.91 0.902,-0.501 0,0 Z M 1.779,-0.943 1.238,-0.69 0.674,-1.254 0.93,-1.792 0.573,-2.149 -0.471,0.123 -0.096,0.497 2.148,-0.574 1.779,-0.943 Z"
             style="fill:#929292;fill-opacity:1;fill-rule:nonzero;stroke:none"
             id="path132"
             inkscape:connector-curvature="0" /></g><g
           id="g134"
           transform="translate(306.2324,527.248)"><path
             d="M 0,0 -0.164,-0.166 0.291,-0.62 0.44,-0.471 C 0.615,-0.296 0.783,-0.104 0.566,0.112 0.36,0.318 0.159,0.157 0,0 m 1.785,-0.996 -0.431,0.1 C 0.917,-0.795 0.8,-0.783 0.697,-0.789 0.646,-0.79 0.58,-0.825 0.537,-0.868 L 1.225,-1.555 0.887,-1.894 -0.768,-0.242 -0.21,0.313 C 0.006,0.531 0.189,0.654 0.38,0.672 0.587,0.69 0.77,0.622 0.917,0.476 1.173,0.22 1.187,-0.135 0.971,-0.391 1.008,-0.386 1.066,-0.388 1.125,-0.398 1.248,-0.416 1.448,-0.439 1.638,-0.477 L 2.196,-0.584 1.785,-0.996 Z"
             style="fill:#929292;fill-opacity:1;fill-rule:nonzero;stroke:none"
             id="path136"
             inkscape:connector-curvature="0" /></g><g
           id="g138"
           transform="translate(308.4238,529.4077)"><path
             d="M 0,0 -0.449,-0.448 0.927,-1.823 0.581,-2.168 -0.794,-0.794 -1.249,-1.249 -1.526,-0.97 -0.219,0.335 0,0 Z"
             style="fill:#929292;fill-opacity:1;fill-rule:nonzero;stroke:none"
             id="path140"
             inkscape:connector-curvature="0" /></g><g
           id="g142"
           transform="translate(312.1563,530.3926)"><path
             d="M 0,0 -0.736,0.736 -1.304,0.167 -0.566,-0.569 -0.913,-0.914 -2.565,0.74 -2.22,1.084 -1.582,0.446 -1.015,1.014 -1.651,1.652 -1.304,2 0.35,0.348 0,0 Z"
             style="fill:#929292;fill-opacity:1;fill-rule:nonzero;stroke:none"
             id="path144"
             inkscape:connector-curvature="0" /></g><g
           id="g146"
           transform="translate(312.3613,533.438)"><path
             d="M 0,0 C -0.34,-0.342 -0.067,-0.715 0.203,-0.985 0.501,-1.283 0.846,-1.548 1.214,-1.181 1.561,-0.833 1.277,-0.47 1.005,-0.198 0.719,0.089 0.361,0.36 0,0 m 1.467,-1.423 c -0.511,-0.51 -1.142,-0.452 -1.643,0.049 -0.533,0.535 -0.558,1.151 -0.073,1.638 0.521,0.521 1.133,0.43 1.627,-0.065 0.503,-0.502 0.624,-1.088 0.089,-1.622"
             style="fill:#929292;fill-opacity:1;fill-rule:nonzero;stroke:none"
             id="path148"
             inkscape:connector-curvature="0" /></g><g
           id="g150"
           transform="translate(316.5566,534.7939)"><path
             d="m 0,0 -1.022,0.888 c -0.123,0.104 -0.366,0.335 -0.366,0.335 0,0 0.17,-0.285 0.249,-0.433 l 0.667,-1.262 -0.295,-0.295 -1.227,0.672 c -0.133,0.073 -0.463,0.286 -0.463,0.286 0,0 0.247,-0.258 0.359,-0.391 l 0.884,-1.017 -0.343,-0.342 -1.478,1.826 0.445,0.448 1.133,-0.629 c 0.15,-0.081 0.429,-0.273 0.429,-0.273 0,0 -0.196,0.293 -0.276,0.434 L -1.925,1.376 -1.478,1.825 0.339,0.337 0,0 Z"
             style="fill:#929292;fill-opacity:1;fill-rule:nonzero;stroke:none"
             id="path152"
             inkscape:connector-curvature="0" /></g><g
           id="g154"
           transform="translate(317.46,535.6948)"><path
             d="M 0,0 -1.652,1.652 -0.615,2.691 -0.393,2.37 -1.039,1.722 -0.656,1.341 -0.117,1.881 0.155,1.609 -0.383,1.071 0.057,0.631 0.775,1.35 1.063,1.063 0,0 Z"
             style="fill:#929292;fill-opacity:1;fill-rule:nonzero;stroke:none"
             id="path156"
             inkscape:connector-curvature="0" /></g></g></g></g></svg>