<svg xmlns="http://www.w3.org/2000/svg" viewBox="0 0 250 250"><defs><style>.cls-1{fill:#1b365d;}.cls-2{fill:#fff;stroke:#fff;stroke-width:0.02px;}</style></defs><title>enocean</title><circle class="cls-1" cx="125" cy="125" r="125"/><g id="enocean"><path class="cls-2" d="M351.19,298.58c6,0,14.66.46,16.59.65,4.5.46,18.55,2.87,20.31,2.84,2,0,3.88-.47,5-2a5,5,0,0,0,.43-4.8c-.65-1.15-1.38-1.38-4.37-2.4a4.9,4.9,0,0,1-3.05-2.4,28,28,0,0,1-1.31-3.5c-.61-2.25-1.54-6.26-3.72-9.61a40.14,40.14,0,0,0-6.55-8.29c-4.84-4.69-13.1-8.74-13.1-8.74s-8.74-5.21-23.58-7.21a70.71,70.71,0,0,0-14.42-.65,40.62,40.62,0,0,0-5.89.87c-.9.17-11.81,1.6-24.24,12a120.56,120.56,0,0,0-21,23.59l-2.18,3s-4.79,6.83-8.52,12.45-8.73,12.89-10.26,14.63c-3.39,3.89-8.3,7.79-12.88,8.52a96.49,96.49,0,0,1-11.36,1.09c-7.63.14-10.17.46-14.63,1.53a22.59,22.59,0,0,0-6.11,2.18c-.65.34-2,1-1.1,1.31a58,58,0,0,1,5.68,2.19,87,87,0,0,1,12.45,7c10.8,7,18.27,18.93,20.09,22,1.21,2.09,1.74,2.4,2,2.4,0,0,.64-2.35,0-7.64s-3.66-11.21-5.67-14.41A34.3,34.3,0,0,0,228,334.17l5.25-.22s7.88-.77,11.79-2.18a26.6,26.6,0,0,0,9.17-5.46c2.69-2.77,6.45-7.8,12.67-17.47s14-20,21.61-27.52c7.77-7.61,17.08-11.11,21-12.44,2.87-1,14.72-2.77,17.9-2.84a92.12,92.12,0,0,1,14.2,1.09,78.72,78.72,0,0,1,10.92,3.49,61.17,61.17,0,0,1,14.85,8.74c2.15,1.79,8.95,7.48,11.57,10.48s2.78,3.7,2.62,4.59-1.29.49-1.53.43a26.31,26.31,0,0,0-5.67-1.09,93.44,93.44,0,0,0-14.85-.65,116.12,116.12,0,0,0-17,2.18s-8,1.25-9.82,2.62c-1.17.89.43,1.09.43,1.09s2.19-.09,3.71-.22C340.83,298.47,345.75,298.57,351.19,298.58Z" transform="translate(-175 -175)"/><path class="cls-2" d="M284.37,237.43a3.6,3.6,0,0,0,.87,1.75c.23.25,2.16,1.38,2.4,1.53.59.34,1.49,1,2.62,1.74.71.45,2.9,1.43,3.5,1.75.77.43,4.14,2.51,4.36,2.62s3.34,2.25,3.5,2.4a15.92,15.92,0,0,0,1.31,1.1c.15.07,2.39,1.67,2.62,1.74a2.15,2.15,0,0,0,.87.22c.26,0,2.23-.58,2.4-.65S311,251,311,251s1.32-.41,2.18-.65c1.42-.42,2.58-.55,2.84-.66a1.46,1.46,0,0,0,.87-.87,1.08,1.08,0,0,0-.22-.88,8.22,8.22,0,0,0-2.13-1.47c.32.24.53.41.17.16-.2-.13-.23-.18-.17-.16-.25-.18-.57-.41-.7-.49-.31-.19-2.14-1.37-2.41-1.53s-3-1.8-4.8-2.62c-1.21-.54-2.09-.85-5.24-2.19a69.63,69.63,0,0,0-7.64-2.83c-3-.81-3.49-.8-3.72-.88a18.14,18.14,0,0,0-2.18-.43c-.58-.07-1.28-.22-1.75-.22a5.68,5.68,0,0,0-1.09.22c-.23.07-.53,0-.65.21s0,.65,0,.88A2.51,2.51,0,0,0,284.37,237.43Z" transform="translate(-175 -175)"/></g></svg>