<svg xmlns="http://www.w3.org/2000/svg" viewBox="0 0 250 250"><defs><style>.cls-1{fill:#1b365d;}.cls-2{fill:#fff;}</style></defs><title>zwave</title><circle class="cls-1" cx="125" cy="125" r="125"/><g id="z-wave"><path class="cls-2" d="M321.49,279.61a42,42,0,1,0,42,42A42,42,0,0,0,321.49,279.61Zm20.77,49.32-8.35,13.58H297.55l20.16-31.24H299.08l7.77-12.43h35.41l-18.91,30.09Z" transform="translate(-175 -175)"/><path class="cls-2" d="M320.53,229.82V216a104.51,104.51,0,0,0-104,104.52c0,.26,0,.52,0,.78h13.77A91.81,91.81,0,0,1,320.53,229.82Z" transform="translate(-175 -175)"/><path class="cls-2" d="M320.53,244.83h-.31A76.16,76.16,0,0,0,244.06,321c0,.1,0,.21,0,.31h13.81a63.75,63.75,0,0,1,62.65-62.66Z" transform="translate(-175 -175)"/></g></svg>